<mxfile host="app.diagrams.net" modified="2024-02-17T21:34:25.212Z" agent="Mozilla/5.0 (X11; Linux x86_64) AppleWebKit/537.36 (KHTML, like Gecko) Chrome/121.0.0.0 Safari/537.36" etag="rEf93Rk5Qh4u0dycpD3k" version="23.1.5" type="github">
  <diagram id="C5RBs43oDa-KdzZeNtuy" name="Page-1">
    <mxGraphModel dx="1657" dy="1031" grid="1" gridSize="11" guides="1" tooltips="1" connect="1" arrows="1" fold="1" page="0" pageScale="1" pageWidth="827" pageHeight="1169" math="0" shadow="0">
      <root>
        <mxCell id="WIyWlLk6GJQsqaUBKTNV-0" />
        <mxCell id="WIyWlLk6GJQsqaUBKTNV-1" parent="WIyWlLk6GJQsqaUBKTNV-0" />
        <mxCell id="zkfFHV4jXpPFQw0GAbJ--0" value="loja" style="swimlane;fontStyle=2;align=center;verticalAlign=top;childLayout=stackLayout;horizontal=1;startSize=26;horizontalStack=0;resizeParent=1;resizeLast=0;collapsible=1;marginBottom=0;rounded=0;shadow=0;strokeWidth=1;" parent="WIyWlLk6GJQsqaUBKTNV-1" vertex="1">
          <mxGeometry x="407" y="-132" width="160" height="200" as="geometry">
            <mxRectangle x="230" y="140" width="160" height="26" as="alternateBounds" />
          </mxGeometry>
        </mxCell>
        <mxCell id="zkfFHV4jXpPFQw0GAbJ--1" value="Cliente" style="text;align=left;verticalAlign=top;spacingLeft=4;spacingRight=4;overflow=hidden;rotatable=0;points=[[0,0.5],[1,0.5]];portConstraint=eastwest;" parent="zkfFHV4jXpPFQw0GAbJ--0" vertex="1">
          <mxGeometry y="26" width="160" height="26" as="geometry" />
        </mxCell>
        <mxCell id="zkfFHV4jXpPFQw0GAbJ--2" value="Item" style="text;align=left;verticalAlign=top;spacingLeft=4;spacingRight=4;overflow=hidden;rotatable=0;points=[[0,0.5],[1,0.5]];portConstraint=eastwest;rounded=0;shadow=0;html=0;" parent="zkfFHV4jXpPFQw0GAbJ--0" vertex="1">
          <mxGeometry y="52" width="160" height="26" as="geometry" />
        </mxCell>
        <mxCell id="zkfFHV4jXpPFQw0GAbJ--3" value="pedido" style="text;align=left;verticalAlign=top;spacingLeft=4;spacingRight=4;overflow=hidden;rotatable=0;points=[[0,0.5],[1,0.5]];portConstraint=eastwest;rounded=0;shadow=0;html=0;" parent="zkfFHV4jXpPFQw0GAbJ--0" vertex="1">
          <mxGeometry y="78" width="160" height="26" as="geometry" />
        </mxCell>
        <mxCell id="CkLGqHbu7xcop5a2dUH_-0" value="Item_pedido" style="text;align=left;verticalAlign=top;spacingLeft=4;spacingRight=4;overflow=hidden;rotatable=0;points=[[0,0.5],[1,0.5]];portConstraint=eastwest;rounded=0;shadow=0;html=0;" vertex="1" parent="zkfFHV4jXpPFQw0GAbJ--0">
          <mxGeometry y="104" width="160" height="26" as="geometry" />
        </mxCell>
        <mxCell id="CkLGqHbu7xcop5a2dUH_-1" value="CÃ³digo de barras" style="text;align=left;verticalAlign=top;spacingLeft=4;spacingRight=4;overflow=hidden;rotatable=0;points=[[0,0.5],[1,0.5]];portConstraint=eastwest;rounded=0;shadow=0;html=0;" vertex="1" parent="zkfFHV4jXpPFQw0GAbJ--0">
          <mxGeometry y="130" width="160" height="26" as="geometry" />
        </mxCell>
        <mxCell id="CkLGqHbu7xcop5a2dUH_-2" value="Estoque" style="text;align=left;verticalAlign=top;spacingLeft=4;spacingRight=4;overflow=hidden;rotatable=0;points=[[0,0.5],[1,0.5]];portConstraint=eastwest;rounded=0;shadow=0;html=0;" vertex="1" parent="zkfFHV4jXpPFQw0GAbJ--0">
          <mxGeometry y="156" width="160" height="26" as="geometry" />
        </mxCell>
        <mxCell id="CkLGqHbu7xcop5a2dUH_-3" value="Cliente" style="swimlane;whiteSpace=wrap;html=1;" vertex="1" parent="WIyWlLk6GJQsqaUBKTNV-1">
          <mxGeometry x="-22" y="120" width="160" height="341" as="geometry" />
        </mxCell>
        <mxCell id="CkLGqHbu7xcop5a2dUH_-5" value="id_cliente" style="text;align=left;verticalAlign=top;spacingLeft=4;spacingRight=4;overflow=hidden;rotatable=0;points=[[0,0.5],[1,0.5]];portConstraint=eastwest;rounded=0;shadow=0;html=0;" vertex="1" parent="CkLGqHbu7xcop5a2dUH_-3">
          <mxGeometry y="22" width="160" height="26" as="geometry" />
        </mxCell>
        <mxCell id="CkLGqHbu7xcop5a2dUH_-7" value="titulo" style="text;align=left;verticalAlign=top;spacingLeft=4;spacingRight=4;overflow=hidden;rotatable=0;points=[[0,0.5],[1,0.5]];portConstraint=eastwest;rounded=0;shadow=0;html=0;" vertex="1" parent="CkLGqHbu7xcop5a2dUH_-3">
          <mxGeometry y="50" width="160" height="26" as="geometry" />
        </mxCell>
        <mxCell id="CkLGqHbu7xcop5a2dUH_-10" value="endereco" style="text;align=left;verticalAlign=top;spacingLeft=4;spacingRight=4;overflow=hidden;rotatable=0;points=[[0,0.5],[1,0.5]];portConstraint=eastwest;rounded=0;shadow=0;html=0;" vertex="1" parent="CkLGqHbu7xcop5a2dUH_-3">
          <mxGeometry y="130" width="160" height="26" as="geometry" />
        </mxCell>
        <mxCell id="CkLGqHbu7xcop5a2dUH_-9" value="sobrenome" style="text;align=left;verticalAlign=top;spacingLeft=4;spacingRight=4;overflow=hidden;rotatable=0;points=[[0,0.5],[1,0.5]];portConstraint=eastwest;rounded=0;shadow=0;html=0;" vertex="1" parent="CkLGqHbu7xcop5a2dUH_-3">
          <mxGeometry y="102" width="160" height="26" as="geometry" />
        </mxCell>
        <mxCell id="CkLGqHbu7xcop5a2dUH_-8" value="nome" style="text;align=left;verticalAlign=top;spacingLeft=4;spacingRight=4;overflow=hidden;rotatable=0;points=[[0,0.5],[1,0.5]];portConstraint=eastwest;rounded=0;shadow=0;html=0;" vertex="1" parent="CkLGqHbu7xcop5a2dUH_-3">
          <mxGeometry y="76" width="160" height="26" as="geometry" />
        </mxCell>
        <mxCell id="CkLGqHbu7xcop5a2dUH_-11" value="numero" style="text;align=left;verticalAlign=top;spacingLeft=4;spacingRight=4;overflow=hidden;rotatable=0;points=[[0,0.5],[1,0.5]];portConstraint=eastwest;rounded=0;shadow=0;html=0;" vertex="1" parent="CkLGqHbu7xcop5a2dUH_-3">
          <mxGeometry y="160" width="160" height="26" as="geometry" />
        </mxCell>
        <mxCell id="CkLGqHbu7xcop5a2dUH_-13" value="complemento" style="text;align=left;verticalAlign=top;spacingLeft=4;spacingRight=4;overflow=hidden;rotatable=0;points=[[0,0.5],[1,0.5]];portConstraint=eastwest;rounded=0;shadow=0;html=0;" vertex="1" parent="CkLGqHbu7xcop5a2dUH_-3">
          <mxGeometry y="186" width="160" height="26" as="geometry" />
        </mxCell>
        <mxCell id="CkLGqHbu7xcop5a2dUH_-12" value="cep&#xa;" style="text;align=left;verticalAlign=top;spacingLeft=4;spacingRight=4;overflow=hidden;rotatable=0;points=[[0,0.5],[1,0.5]];portConstraint=eastwest;rounded=0;shadow=0;html=0;" vertex="1" parent="CkLGqHbu7xcop5a2dUH_-3">
          <mxGeometry y="212" width="160" height="26" as="geometry" />
        </mxCell>
        <mxCell id="CkLGqHbu7xcop5a2dUH_-15" value="cidade" style="text;align=left;verticalAlign=top;spacingLeft=4;spacingRight=4;overflow=hidden;rotatable=0;points=[[0,0.5],[1,0.5]];portConstraint=eastwest;rounded=0;shadow=0;html=0;" vertex="1" parent="CkLGqHbu7xcop5a2dUH_-3">
          <mxGeometry y="238" width="160" height="26" as="geometry" />
        </mxCell>
        <mxCell id="CkLGqHbu7xcop5a2dUH_-16" value="estado" style="text;align=left;verticalAlign=top;spacingLeft=4;spacingRight=4;overflow=hidden;rotatable=0;points=[[0,0.5],[1,0.5]];portConstraint=eastwest;rounded=0;shadow=0;html=0;" vertex="1" parent="CkLGqHbu7xcop5a2dUH_-3">
          <mxGeometry y="264" width="160" height="26" as="geometry" />
        </mxCell>
        <mxCell id="CkLGqHbu7xcop5a2dUH_-14" value="fone_fixo" style="text;align=left;verticalAlign=top;spacingLeft=4;spacingRight=4;overflow=hidden;rotatable=0;points=[[0,0.5],[1,0.5]];portConstraint=eastwest;rounded=0;shadow=0;html=0;" vertex="1" parent="CkLGqHbu7xcop5a2dUH_-3">
          <mxGeometry y="290" width="160" height="26" as="geometry" />
        </mxCell>
        <mxCell id="CkLGqHbu7xcop5a2dUH_-18" value="fone_movel" style="text;align=left;verticalAlign=top;spacingLeft=4;spacingRight=4;overflow=hidden;rotatable=0;points=[[0,0.5],[1,0.5]];portConstraint=eastwest;rounded=0;shadow=0;html=0;" vertex="1" parent="CkLGqHbu7xcop5a2dUH_-3">
          <mxGeometry y="316" width="160" height="25" as="geometry" />
        </mxCell>
        <mxCell id="CkLGqHbu7xcop5a2dUH_-4" style="edgeStyle=orthogonalEdgeStyle;rounded=0;orthogonalLoop=1;jettySize=auto;html=1;entryX=0.5;entryY=0;entryDx=0;entryDy=0;" edge="1" parent="WIyWlLk6GJQsqaUBKTNV-1" source="zkfFHV4jXpPFQw0GAbJ--2" target="CkLGqHbu7xcop5a2dUH_-3">
          <mxGeometry relative="1" as="geometry" />
        </mxCell>
        <mxCell id="CkLGqHbu7xcop5a2dUH_-49" style="edgeStyle=orthogonalEdgeStyle;rounded=0;orthogonalLoop=1;jettySize=auto;html=1;exitX=0.5;exitY=1;exitDx=0;exitDy=0;entryX=0.5;entryY=0;entryDx=0;entryDy=0;" edge="1" parent="WIyWlLk6GJQsqaUBKTNV-1" source="CkLGqHbu7xcop5a2dUH_-27" target="CkLGqHbu7xcop5a2dUH_-47">
          <mxGeometry relative="1" as="geometry" />
        </mxCell>
        <mxCell id="CkLGqHbu7xcop5a2dUH_-27" value="Item" style="swimlane;whiteSpace=wrap;html=1;" vertex="1" parent="WIyWlLk6GJQsqaUBKTNV-1">
          <mxGeometry x="385" y="176" width="132" height="143" as="geometry" />
        </mxCell>
        <mxCell id="CkLGqHbu7xcop5a2dUH_-28" value="id_tem" style="text;align=left;verticalAlign=top;spacingLeft=4;spacingRight=4;overflow=hidden;rotatable=0;points=[[0,0.5],[1,0.5]];portConstraint=eastwest;rounded=0;shadow=0;html=0;" vertex="1" parent="CkLGqHbu7xcop5a2dUH_-27">
          <mxGeometry y="25" width="132" height="24" as="geometry" />
        </mxCell>
        <mxCell id="CkLGqHbu7xcop5a2dUH_-29" value="ds_item" style="text;align=left;verticalAlign=top;spacingLeft=4;spacingRight=4;overflow=hidden;rotatable=0;points=[[0,0.5],[1,0.5]];portConstraint=eastwest;rounded=0;shadow=0;html=0;" vertex="1" parent="CkLGqHbu7xcop5a2dUH_-27">
          <mxGeometry y="55" width="132" height="24" as="geometry" />
        </mxCell>
        <mxCell id="CkLGqHbu7xcop5a2dUH_-30" value="preco_custo" style="text;align=left;verticalAlign=top;spacingLeft=4;spacingRight=4;overflow=hidden;rotatable=0;points=[[0,0.5],[1,0.5]];portConstraint=eastwest;rounded=0;shadow=0;html=0;" vertex="1" parent="CkLGqHbu7xcop5a2dUH_-27">
          <mxGeometry y="79" width="132" height="24" as="geometry" />
        </mxCell>
        <mxCell id="CkLGqHbu7xcop5a2dUH_-35" value="preco_venda" style="text;align=left;verticalAlign=top;spacingLeft=4;spacingRight=4;overflow=hidden;rotatable=0;points=[[0,0.5],[1,0.5]];portConstraint=eastwest;rounded=0;shadow=0;html=0;" vertex="1" parent="CkLGqHbu7xcop5a2dUH_-27">
          <mxGeometry y="110" width="132" height="24" as="geometry" />
        </mxCell>
        <mxCell id="CkLGqHbu7xcop5a2dUH_-48" style="edgeStyle=orthogonalEdgeStyle;rounded=0;orthogonalLoop=1;jettySize=auto;html=1;exitX=1;exitY=0.5;exitDx=0;exitDy=0;entryX=0.5;entryY=1;entryDx=0;entryDy=0;" edge="1" parent="WIyWlLk6GJQsqaUBKTNV-1" source="CkLGqHbu7xcop5a2dUH_-38" target="CkLGqHbu7xcop5a2dUH_-47">
          <mxGeometry relative="1" as="geometry" />
        </mxCell>
        <mxCell id="CkLGqHbu7xcop5a2dUH_-38" value="Pedido" style="swimlane;whiteSpace=wrap;html=1;" vertex="1" parent="WIyWlLk6GJQsqaUBKTNV-1">
          <mxGeometry x="33" y="594" width="136" height="154" as="geometry" />
        </mxCell>
        <mxCell id="CkLGqHbu7xcop5a2dUH_-39" value="id_pedido" style="text;align=left;verticalAlign=top;spacingLeft=4;spacingRight=4;overflow=hidden;rotatable=0;points=[[0,0.5],[1,0.5]];portConstraint=eastwest;rounded=0;shadow=0;html=0;" vertex="1" parent="CkLGqHbu7xcop5a2dUH_-38">
          <mxGeometry y="22" width="132" height="26" as="geometry" />
        </mxCell>
        <mxCell id="CkLGqHbu7xcop5a2dUH_-42" value="dt_entrega" style="text;align=left;verticalAlign=top;spacingLeft=4;spacingRight=4;overflow=hidden;rotatable=0;points=[[0,0.5],[1,0.5]];portConstraint=eastwest;rounded=0;shadow=0;html=0;" vertex="1" parent="CkLGqHbu7xcop5a2dUH_-38">
          <mxGeometry y="100" width="132" height="26" as="geometry" />
        </mxCell>
        <mxCell id="CkLGqHbu7xcop5a2dUH_-41" value="dt_compra" style="text;align=left;verticalAlign=top;spacingLeft=4;spacingRight=4;overflow=hidden;rotatable=0;points=[[0,0.5],[1,0.5]];portConstraint=eastwest;rounded=0;shadow=0;html=0;" vertex="1" parent="CkLGqHbu7xcop5a2dUH_-38">
          <mxGeometry y="74" width="132" height="26" as="geometry" />
        </mxCell>
        <mxCell id="CkLGqHbu7xcop5a2dUH_-40" value="id_cliente&#xa;" style="text;align=left;verticalAlign=top;spacingLeft=4;spacingRight=4;overflow=hidden;rotatable=0;points=[[0,0.5],[1,0.5]];portConstraint=eastwest;rounded=0;shadow=0;html=0;" vertex="1" parent="CkLGqHbu7xcop5a2dUH_-38">
          <mxGeometry y="48" width="132" height="26" as="geometry" />
        </mxCell>
        <mxCell id="CkLGqHbu7xcop5a2dUH_-44" value="valor" style="text;align=left;verticalAlign=top;spacingLeft=4;spacingRight=4;overflow=hidden;rotatable=0;points=[[0,0.5],[1,0.5]];portConstraint=eastwest;rounded=0;shadow=0;html=0;" vertex="1" parent="CkLGqHbu7xcop5a2dUH_-38">
          <mxGeometry y="126" width="132" height="26" as="geometry" />
        </mxCell>
        <mxCell id="CkLGqHbu7xcop5a2dUH_-46" style="edgeStyle=orthogonalEdgeStyle;rounded=0;orthogonalLoop=1;jettySize=auto;html=1;entryX=0.5;entryY=0;entryDx=0;entryDy=0;" edge="1" parent="WIyWlLk6GJQsqaUBKTNV-1" source="CkLGqHbu7xcop5a2dUH_-18" target="CkLGqHbu7xcop5a2dUH_-38">
          <mxGeometry relative="1" as="geometry" />
        </mxCell>
        <mxCell id="CkLGqHbu7xcop5a2dUH_-47" value="item_pedido" style="swimlane;whiteSpace=wrap;html=1;" vertex="1" parent="WIyWlLk6GJQsqaUBKTNV-1">
          <mxGeometry x="297" y="495" width="132" height="110" as="geometry" />
        </mxCell>
        <mxCell id="CkLGqHbu7xcop5a2dUH_-50" value="id_item" style="text;align=left;verticalAlign=top;spacingLeft=4;spacingRight=4;overflow=hidden;rotatable=0;points=[[0,0.5],[1,0.5]];portConstraint=eastwest;rounded=0;shadow=0;html=0;" vertex="1" parent="CkLGqHbu7xcop5a2dUH_-47">
          <mxGeometry y="33" width="132" height="26" as="geometry" />
        </mxCell>
        <mxCell id="CkLGqHbu7xcop5a2dUH_-51" value="id_pedido" style="text;align=left;verticalAlign=top;spacingLeft=4;spacingRight=4;overflow=hidden;rotatable=0;points=[[0,0.5],[1,0.5]];portConstraint=eastwest;rounded=0;shadow=0;html=0;" vertex="1" parent="CkLGqHbu7xcop5a2dUH_-47">
          <mxGeometry y="59" width="132" height="26" as="geometry" />
        </mxCell>
        <mxCell id="CkLGqHbu7xcop5a2dUH_-52" value="quatidade" style="text;align=left;verticalAlign=top;spacingLeft=4;spacingRight=4;overflow=hidden;rotatable=0;points=[[0,0.5],[1,0.5]];portConstraint=eastwest;rounded=0;shadow=0;html=0;" vertex="1" parent="CkLGqHbu7xcop5a2dUH_-47">
          <mxGeometry y="85" width="132" height="26" as="geometry" />
        </mxCell>
        <mxCell id="CkLGqHbu7xcop5a2dUH_-53" value="codigo_barra" style="swimlane;whiteSpace=wrap;html=1;" vertex="1" parent="WIyWlLk6GJQsqaUBKTNV-1">
          <mxGeometry x="704" y="120" width="132" height="88" as="geometry" />
        </mxCell>
        <mxCell id="CkLGqHbu7xcop5a2dUH_-54" value="codigo de barras" style="text;align=left;verticalAlign=top;spacingLeft=4;spacingRight=4;overflow=hidden;rotatable=0;points=[[0,0.5],[1,0.5]];portConstraint=eastwest;rounded=0;shadow=0;html=0;" vertex="1" parent="CkLGqHbu7xcop5a2dUH_-53">
          <mxGeometry y="29" width="132" height="26" as="geometry" />
        </mxCell>
        <mxCell id="CkLGqHbu7xcop5a2dUH_-55" value="id_item" style="text;align=left;verticalAlign=top;spacingLeft=4;spacingRight=4;overflow=hidden;rotatable=0;points=[[0,0.5],[1,0.5]];portConstraint=eastwest;rounded=0;shadow=0;html=0;" vertex="1" parent="CkLGqHbu7xcop5a2dUH_-53">
          <mxGeometry y="59" width="132" height="26" as="geometry" />
        </mxCell>
        <mxCell id="CkLGqHbu7xcop5a2dUH_-58" style="edgeStyle=orthogonalEdgeStyle;rounded=0;orthogonalLoop=1;jettySize=auto;html=1;entryX=-0.009;entryY=1.144;entryDx=0;entryDy=0;entryPerimeter=0;" edge="1" parent="WIyWlLk6GJQsqaUBKTNV-1" source="CkLGqHbu7xcop5a2dUH_-29" target="CkLGqHbu7xcop5a2dUH_-54">
          <mxGeometry relative="1" as="geometry" />
        </mxCell>
        <mxCell id="CkLGqHbu7xcop5a2dUH_-59" value="estoque" style="swimlane;whiteSpace=wrap;html=1;" vertex="1" parent="WIyWlLk6GJQsqaUBKTNV-1">
          <mxGeometry x="660" y="418" width="132" height="88" as="geometry" />
        </mxCell>
        <mxCell id="CkLGqHbu7xcop5a2dUH_-60" value="id_item&#xa;" style="text;align=left;verticalAlign=top;spacingLeft=4;spacingRight=4;overflow=hidden;rotatable=0;points=[[0,0.5],[1,0.5]];portConstraint=eastwest;rounded=0;shadow=0;html=0;" vertex="1" parent="CkLGqHbu7xcop5a2dUH_-59">
          <mxGeometry y="29" width="132" height="26" as="geometry" />
        </mxCell>
        <mxCell id="CkLGqHbu7xcop5a2dUH_-61" value="quatidade" style="text;align=left;verticalAlign=top;spacingLeft=4;spacingRight=4;overflow=hidden;rotatable=0;points=[[0,0.5],[1,0.5]];portConstraint=eastwest;rounded=0;shadow=0;html=0;" vertex="1" parent="CkLGqHbu7xcop5a2dUH_-59">
          <mxGeometry y="59" width="132" height="26" as="geometry" />
        </mxCell>
        <mxCell id="CkLGqHbu7xcop5a2dUH_-62" style="edgeStyle=orthogonalEdgeStyle;rounded=0;orthogonalLoop=1;jettySize=auto;html=1;entryX=0;entryY=0.5;entryDx=0;entryDy=0;" edge="1" parent="WIyWlLk6GJQsqaUBKTNV-1" source="CkLGqHbu7xcop5a2dUH_-30" target="CkLGqHbu7xcop5a2dUH_-59">
          <mxGeometry relative="1" as="geometry" />
        </mxCell>
        <mxCell id="CkLGqHbu7xcop5a2dUH_-63" style="edgeStyle=orthogonalEdgeStyle;rounded=0;orthogonalLoop=1;jettySize=auto;html=1;exitX=0;exitY=0.5;exitDx=0;exitDy=0;entryX=-0.004;entryY=0.107;entryDx=0;entryDy=0;entryPerimeter=0;" edge="1" parent="WIyWlLk6GJQsqaUBKTNV-1" source="CkLGqHbu7xcop5a2dUH_-2" target="CkLGqHbu7xcop5a2dUH_-30">
          <mxGeometry relative="1" as="geometry">
            <Array as="points">
              <mxPoint x="297" y="37" />
              <mxPoint x="297" y="258" />
            </Array>
          </mxGeometry>
        </mxCell>
      </root>
    </mxGraphModel>
  </diagram>
</mxfile>
